<?xml version="1.0" encoding="UTF-8"?><svg id="Layer_3" xmlns="http://www.w3.org/2000/svg" viewBox="0 0 1000 306.82"><defs><style>.cls-1{fill:#f36e3e;}</style></defs><path class="cls-1" d="M825.68,101.81H174.32c-54.97,0-99.53-44.56-99.53-99.53v24.85c0,54.97,44.56,99.53,99.53,99.53h651.36c54.97,0,99.53-44.56,99.53-99.53V2.28c0,54.97-44.56,99.53-99.53,99.53Z"/><path class="cls-1" d="M825.68,153.77H174.32c-54.97,0-99.53-44.56-99.53-99.53v24.85c0,54.97,44.56,99.53,99.53,99.53h651.36c54.97,0,99.53-44.56,99.53-99.53v-24.85c0,54.97-44.56,99.53-99.53,99.53Z"/><path class="cls-1" d="M825.68,205.72H174.32c-54.97,0-99.53-44.56-99.53-99.53v24.85c0,54.97,44.56,99.53,99.53,99.53h651.36c54.97,0,99.53-44.56,99.53-99.53v-24.85c0,54.97-44.56,99.53-99.53,99.53Z"/><path class="cls-1" d="M825.68,257.67H174.32c-54.97,0-99.53-44.56-99.53-99.53v24.85c0,54.97,44.56,99.53,99.53,99.53h651.36c54.97,0,99.53-44.56,99.53-99.53v-24.85c0,54.97-44.56,99.53-99.53,99.53Z"/></svg>