<?xml version="1.0" encoding="UTF-8"?><svg id="Layer_1" xmlns="http://www.w3.org/2000/svg" viewBox="0 0 160 200"><defs><style>.cls-1{fill:#fff0ed;}.cls-2{fill:#ee293d;}</style></defs><rect class="cls-1" x="4.39" y="83.97" width="151.23" height="113.38"/><path class="cls-2" d="M4.39,83.97h151.23s0,113.38,0,113.38H4.39s0-113.38,0-113.38ZM58.42,140.72L8.14,90.41v100.51s50.28-50.2,50.28-50.2ZM10.82,87.72l66.53,66.57c.71.72,1.61,1.07,2.68,1.07s1.97-.36,2.68-1.07l66.53-66.57H10.82ZM98.97,143.4l-13.57,13.43c-1.48,1.53-3.27,2.29-5.37,2.29s-3.91-.76-5.44-2.29l-13.49-13.43-50.28,50.19h138.36s-50.21-50.19-50.21-50.19ZM101.65,140.72l50.2,50.2v-100.51s-50.2,50.31-50.2,50.31Z"/><path class="cls-2" d="M4.39,84.73L73.33,19.43c4.83-4.87,12.69-4.91,17.56-.09l64.72,65.38-75.57,73.84L4.39,84.73Z"/><path class="cls-1" d="M77.18,153.12l-54.12-54.8v-23.29h111.88l.25,25.57-52.5,52.54c-1.52,1.52-4,1.52-5.51-.02Z"/></svg>