<?xml version="1.0" encoding="UTF-8"?><svg id="Layer_1" xmlns="http://www.w3.org/2000/svg" viewBox="0 0 160 200"><defs><style>.cls-1{fill:#fff0ed;}.cls-2{fill:#ee293d;}</style></defs><rect class="cls-1" x="4.39" y="43.31" width="151.23" height="113.38"/><path class="cls-2" d="M4.39,43.31h151.23s0,113.38,0,113.38H4.39s0-113.38,0-113.38ZM58.42,100.06L8.14,49.75v100.51s50.28-50.2,50.28-50.2ZM10.82,47.06l66.53,66.57c.71.72,1.61,1.07,2.68,1.07s1.97-.36,2.68-1.07l66.53-66.57H10.82ZM98.97,102.75l-13.57,13.43c-1.48,1.53-3.27,2.29-5.37,2.29s-3.91-.76-5.44-2.29l-13.49-13.43-50.28,50.19h138.36s-50.21-50.19-50.21-50.19ZM101.65,100.06l50.2,50.2V49.75s-50.2,50.31-50.2,50.31Z"/></svg>